<?xml version="1.0" standalone="yes"?>
<svg xmlns="http://www.w3.org/2000/svg" width="336" height="184">
<path style="fill:#fefefe; stroke:none;" d="M0 0L0 184L336 184L336 0L0 0z"/>
<path style="fill:#e5e1de; stroke:none;" d="M22 73C67.1208 42.8036 129.965 28 184 28L184 27L163 27L163 26L165 26L165 25L151 27C140.193 28.964 125.408 32.8955 117 24L166.001 11.6142L209 14.5471L243 22L241 24L241 25L246 24L253 27L253 28L244 28L244 29L269 31L269 32C220.918 31.343 175.912 32.4789 129 44.5021C112.748 48.6673 95.0873 52.3484 80 59.9051C65.7579 67.0385 51.2797 73.9884 40.3188 85.9439C36.0913 90.5551 30.8984 95.3476 32 102L34 102C43.0302 82.0832 66.9381 70.8017 86 62.5606C132.018 42.6655 182.006 34 232 34L232 35C199.037 35.9388 167.555 42.8862 135.941 51.4041C116.141 56.7386 96.5333 63.0642 79 74.1051C67.5529 81.3134 54.5198 89.6794 48.1308 102.011C46.1536 105.827 42.4568 111.268 44.4582 115.763C46.561 120.485 54.5766 121.947 59 123.34C73.0941 127.781 88.5501 131.371 103.01 134.533C122.704 138.84 144.837 138 165 138C214.421 138 259.182 133.224 304 111L304 110C295.049 110.379 287.377 115.416 279 118.049C261.801 123.453 243.839 128.103 226 130.804C168.783 139.465 115.576 132.353 60 119L60 118L126 125L126 124L114 123L114 121L136 121L136 120L128 120L128 117L124 117L120 111C120 105.801 121.714 98.2641 116 96C116 86.5712 119.177 70.0569 114 62L120 60L120 59L117 59L117 58L145 54C145 48.8573 160.551 46.6983 165 45.8333C186.902 41.5746 207.775 38 230 38L230 39L223 39C229.049 45.7403 234.071 46.1747 234 56L238 56L242.023 86.0594L240 97C247.064 95.6347 253.602 90.9475 260 87.6111C262.344 86.3886 268.279 83.0503 263 82L263 81C275.037 77.5958 263 56.9744 265 48L261 38L285 40C271.438 25.8206 252.327 18.4424 234 12.3346C182.994 -4.66417 127.353 -0.307083 79 22.6964C59.2908 32.0728 27.1042 49.7277 22 73z"/>
<path style="fill:#fffdf4; stroke:none;" d="M117 24C123.506 33.7556 141.358 29.1823 151 27C154.73 30.2897 160.792 26.0388 165 25L165 26L163 26L163 27L253 28L253 27L246 24L241 25L241 24L243 22C231.293 21.7713 219.753 15.6533 208 14.2235C175.458 10.2646 147.428 12.3502 117 24z"/>
<path style="fill:#aab9a4; stroke:none;" d="M184 27L184 28L198 28L184 27z"/>
<path style="fill:#7a937d; stroke:none;" d="M198 27L198 28L218 28L198 27z"/>
<path style="fill:#a2b5a2; stroke:none;" d="M218 27L218 28L226 28L218 27z"/>
<path style="fill:#96b097; stroke:none;" d="M170 28L170 29L179 29L170 28z"/>
<path style="fill:#19351f; stroke:none;" d="M100 40L100 41L107 41L107 44L102 44L102 45L112 49C157.084 34.632 203.952 30 251 30C239.337 25.6415 222.378 28 210 28C172.362 28 136.876 33.2335 100 40z"/>
<path style="fill:#a0a797; stroke:none;" d="M236 28L236 29L244 29L236 28z"/>
<path style="fill:#829a84; stroke:none;" d="M161 29L161 30L166 30L161 29z"/>
<path style="fill:#a5ae9b; stroke:none;" d="M246 30L246 31L269 32L246 30z"/>
<path style="fill:#607862; stroke:none;" d="M153 30L153 31L158 31L153 30z"/>
<path style="fill:#a1ae9c; stroke:none;" d="M217 30L217 31L228 31L217 30z"/>
<path style="fill:#c7d0bb; stroke:none;" d="M228 30L228 31L246 31L228 30z"/>
<path style="fill:#939e8e; stroke:none;" d="M142 31L142 32L149 32L142 31z"/>
<path style="fill:#a4baa5; stroke:none;" d="M204 31L204 32L211 32L204 31z"/>
<path style="fill:#798b75; stroke:none;" d="M136 32L136 33L140 33L136 32z"/>
<path style="fill:#788d6c; stroke:none;" d="M189 32L189 33L197 33L189 32z"/>
<path style="fill:#d4d3d1; stroke:none;" d="M276 32L285 39L285 40L261 38C261.997 41.7062 260.748 47.0889 265 48C262.345 57.7868 274.81 75.8347 263 81L263 82L266 82L255 90C267.171 90.8399 285.809 73.3747 292.368 63.9727C295.539 59.4268 296.589 52.1952 301 49L301 48L276 32z"/>
<path style="fill:#8a9b88; stroke:none;" d="M131 33L131 34L134 34L131 33z"/>
<path style="fill:#668063; stroke:none;" d="M181 33L181 34L186 34L181 33z"/>
<path style="fill:#a7bfa9; stroke:none;" d="M177 34L177 35L184 35L177 34z"/>
<path style="fill:#9abb64; stroke:none;" d="M84 65C90.9238 72.195 112.595 58.6375 121 55.6983C156.532 43.2729 194.476 36.9642 232 35C221.083 30.9201 202.481 34.4237 191 35.695C155.781 39.5947 114.125 45.463 84 65z"/>
<path style="fill:#96ad93; stroke:none;" d="M158 37L158 38L162 38L158 37z"/>
<path style="fill:#fcf8ef; stroke:none;" d="M145 54C135.208 52.2281 126.412 55.8215 117 58L117 59L120 59L120 60L114 62C118.771 71.0759 116 85.919 116 96C121.251 99.2578 120 105.467 120 111L124 117L128 117L128 120C160.81 120 195.01 115.97 226 104.565C235.279 101.15 250.039 98.4886 256 90L240 97L242.407 86.0594L238 56L234 56C234.213 46.3231 230.128 44.8631 223 39L230 39C224.95 36.5616 216.516 37.2975 211 37.8657C195.34 39.4788 179.439 42.544 164 45.7963C159.092 46.8302 145.861 48.1195 145 54z"/>
<path style="fill:#808c80; stroke:none;" d="M102.667 39.3333L103.333 39.6667L102.667 39.3333z"/>
<path style="fill:#6a7169; stroke:none;" d="M95 41L95 42L98 42L95 41z"/>
<path style="fill:#060807; stroke:none;" d="M25 105L27 105C37.6545 84.7545 57.2888 70.1894 78 61.0104C86.6484 57.1776 106.597 54.4576 112 47L102 45L102 44L107 44L107 41C85.3492 41.0441 61.2366 51.5263 42 60.8791C34.9042 64.3291 25.7468 67.5412 21.0853 74.3156C14.3895 84.0461 19.0199 96.4819 25 105z"/>
<path style="fill:#a0aaa1; stroke:none;" d="M90 42L90 43L93 43L90 42z"/>
<path style="fill:#6c816e; stroke:none;" d="M131.667 43.3333L132.333 43.6667L131.667 43.3333z"/>
<path style="fill:#778973; stroke:none;" d="M127 44L127 45L130 45L127 44z"/>
<path style="fill:#7d7e76; stroke:none;" d="M78 46L78 47L83 46L78 46z"/>
<path style="fill:#73866a; stroke:none;" d="M123.667 45.3333L124.333 45.6667L123.667 45.3333z"/>
<path style="fill:#768777; stroke:none;" d="M116.667 47.3333L117.333 47.6667L116.667 47.3333z"/>
<path style="fill:#6a6c69; stroke:none;" d="M72.6667 48.3333L73.3333 48.6667L72.6667 48.3333z"/>
<path style="fill:#6d6d6b; stroke:none;" d="M69.6667 49.3333L70.3333 49.6667L69.6667 49.3333z"/>
<path style="fill:#99b096; stroke:none;" d="M298 49L298 53L299 53L298 49z"/>
<path style="fill:#477d41; stroke:none;" d="M299 49L291 82C304.649 76.8797 315.256 57.1726 299 49z"/>
<path style="fill:#788774; stroke:none;" d="M106.667 50.3333L107.333 50.6667L106.667 50.3333z"/>
<path style="fill:#d8ecaf; stroke:none;" d="M134 51L134 52L140 51L134 51z"/>
<path style="fill:#7c867b; stroke:none;" d="M103.667 51.3333L104.333 51.6667L103.667 51.3333z"/>
<path style="fill:#666563; stroke:none;" d="M61.6667 52.3333L62.3333 52.6667L61.6667 52.3333z"/>
<path style="fill:#797876; stroke:none;" d="M58.6667 53.3333L59.3333 53.6667L58.6667 53.3333z"/>
<path style="fill:#2e6c3d; stroke:none;" d="M163 77C158.67 75.1695 144.991 67.4818 142.413 75.2976C141.103 79.2704 143.467 83.0784 143.351 87C143.224 91.2792 138.372 98.184 142.845 101.85C150.432 108.07 164.606 98.597 171 95L171 104L175 104L175 94C180.733 98.732 190.177 109.147 198.784 105.279C204.897 102.532 200.466 93.7111 201.01 89C201.428 85.3796 204.412 82.0219 203.517 78.2382C201.525 69.8116 187.419 75.5496 183 78C185.292 71.9724 191.49 64.0965 188.283 57.2976C186.576 53.6794 162.559 52.114 159.98 54.7182C154.267 60.4857 160.725 71.2019 163 77z"/>
<path style="fill:#605f5d; stroke:none;" d="M56.6667 54.3333L57.3333 54.6667L56.6667 54.3333z"/>
<path style="fill:#95ac92; stroke:none;" d="M158 54L158 56L160 54L158 54z"/>
<path style="fill:#89a28c; stroke:none;" d="M168.667 54.3333L169.333 54.6667L168.667 54.3333z"/>
<path style="fill:#8f9788; stroke:none;" d="M91.6667 55.3333L92.3333 55.6667L91.6667 55.3333z"/>
<path style="fill:#b3cfb6; stroke:none;" d="M171 55L171 56L176 56L171 55z"/>
<path style="fill:#5d595a; stroke:none;" d="M51.6667 56.3333L52.3333 56.6667L51.6667 56.3333z"/>
<path style="fill:#68866c; stroke:none;" d="M157 56L157 64L158 64L157 56z"/>
<path style="fill:#809984; stroke:none;" d="M189 57L189 64L190 64L189 57z"/>
<path style="fill:#96a795; stroke:none;" d="M309 59L305 69L308 69L312 61L309 59z"/>
<path style="fill:#5d5b5c; stroke:none;" d="M42.6667 60.3333L43.3333 60.6667L42.6667 60.3333z"/>
<path style="fill:#898e88; stroke:none;" d="M76.6667 61.3333L77.3333 61.6667L76.6667 61.3333z"/>
<path style="fill:#8b8d88; stroke:none;" d="M74.6667 62.3333L75.3333 62.6667L74.6667 62.3333z"/>
<path style="fill:#71aa49; stroke:none;" d="M64 73L64 74L70 73L71 77L66 80L66 81L67 83L88 69L84 65L88 62L64 73z"/>
<path style="fill:#080a09; stroke:none;" d="M310 62C304.821 79.3786 288.14 90.0528 274 100L273 103L273 104L277 104L276 101L282 113L280 114C290.343 117.835 315.712 104.9 319.784 94.9727C323.682 85.4695 320.666 65.8792 310 62z"/>
<path style="fill:#62a345; stroke:none;" d="M292 64C288.198 68.2008 269.137 81.6896 272 87L272 88L267 92L272 91L272 92L256 102C273.566 95.893 297.966 86.6939 292 64z"/>
<path style="fill:#a5b8a4; stroke:none;" d="M159.333 68.6667L159.667 69.3333L159.333 68.6667z"/>
<path style="fill:#a5bda7; stroke:none;" d="M187.333 68.6667L187.667 69.3333L187.333 68.6667z"/>
<path style="fill:#dbe4c9; stroke:none;" d="M306 68C294.174 78.6808 284.613 89.0526 269.804 96.1056C259.659 100.937 248.713 105.685 238 109.097C229.586 111.778 220.727 112.533 213 117L213 118C239.399 116.747 266.646 106.161 288 90.5642C294.024 86.1643 307.296 76.5076 306 68z"/>
<path style="fill:#9caf99; stroke:none;" d="M160.333 70.6667L160.667 71.3333L160.333 70.6667z"/>
<path style="fill:#a5baa7; stroke:none;" d="M145 71L145 72L150 72L145 71z"/>
<path style="fill:#3b3b39; stroke:none;" d="M306 71L305 74L306 71z"/>
<path style="fill:#5b944d; stroke:none;" d="M50 82L50 83L59 81L59 82L58 89L67 83L66 80L71 77L70 73C62.1219 73.7383 56.3349 77.5161 50 82z"/>
<path style="fill:#bcddbe; stroke:none;" d="M161 73L159 76L163 77L161 73z"/>
<path style="fill:#a7bfa9; stroke:none;" d="M193 73L193 74L199 74L193 73z"/>
<path style="fill:#769375; stroke:none;" d="M141 75L141 80L142 80L141 75z"/>
<path style="fill:#b9caba; stroke:none;" d="M204 76L204 81L205 81L204 76z"/>
<path style="fill:#7b7c7d; stroke:none;" d="M320.333 76.6667L320.667 77.3333L320.333 76.6667z"/>
<path style="fill:#676767; stroke:none;" d="M18 79L18 82L19 82L18 79z"/>
<path style="fill:#393939; stroke:none;" d="M321 80L321 90L322 90L321 80z"/>
<path style="fill:#356a3c; stroke:none;" d="M43 113L56.379 91.4425L59 82C43.7844 78.2578 20.8807 110.25 43 113z"/>
<path style="fill:#84b655; stroke:none;" d="M218 108L218 109C237.761 113.508 256.237 102.831 272 92L272 91L267 92L272 88L272 87L270 86L274 81C255.242 89.1741 238.434 103.996 218 108z"/>
<path style="fill:#898989; stroke:none;" d="M17 82L17 90L18 90L17 82z"/>
<path style="fill:#9caf9b; stroke:none;" d="M202.333 84.6667L202.667 85.3333L202.333 84.6667z"/>
<path style="fill:#94a793; stroke:none;" d="M201.333 86.6667L201.667 87.3333L201.333 86.6667z"/>
<path style="fill:#a3a5a2; stroke:none;" d="M37 88L37 90L39 88L37 88z"/>
<path style="fill:#89a38a; stroke:none;" d="M200 88L200 92L201 92L200 88z"/>
<path style="fill:#858585; stroke:none;" d="M321.333 90.6667L321.667 91.3333L321.333 90.6667z"/>
<path style="fill:#aeb0ad; stroke:none;" d="M34 92L33 95L34 92z"/>
<path style="fill:#868686; stroke:none;" d="M320.333 93.6667L320.667 94.3333L320.333 93.6667z"/>
<path style="fill:#a5caa9; stroke:none;" d="M175 94L175 104L176 104L177 94L175 94z"/>
<path style="fill:#b8b8b8; stroke:none;" d="M19.3333 95.6667L19.6667 96.3333L19.3333 95.6667z"/>
<path style="fill:#9dae9b; stroke:none;" d="M140 95L140 100L141 100L140 95z"/>
<path style="fill:#b5d5bd; stroke:none;" d="M169 95L170 100L171 100L169 95z"/>
<path style="fill:#b1c39b; stroke:none;" d="M268 96L268 97L272 96L268 96z"/>
<path style="fill:#9f9d9e; stroke:none;" d="M31.3333 96.6667L31.6667 97.3333L31.3333 96.6667z"/>
<path style="fill:#6e886b; stroke:none;" d="M202 96L202 104L203 104L202 96z"/>
<path style="fill:#c6dabe; stroke:none;" d="M203 97L203 102L204 102L203 97z"/>
<path style="fill:#a29494; stroke:none;" d="M30 98C24.0594 110.193 33.0864 116.923 42.0008 125C59.6775 141.015 80.8751 151.701 103 160.182C157.767 181.178 225.582 172.387 275 141.682C291.275 131.57 312.515 117.001 319 98L308 105L309 108L296 118L300 116C292.678 129.874 263.937 134.204 250 137.629C198.63 150.252 142.256 149.041 91 136.624C75.3072 132.822 41.2815 128.735 34 112L44 117L44 114C33.8301 111.409 34.798 105.324 30 98z"/>
<path style="fill:#70736c; stroke:none;" d="M273 99L273 100L277 99L273 99z"/>
<path style="fill:#9cb89f; stroke:none;" d="M161 100L161 101L165 100L161 100z"/>
<path style="fill:#7b8a77; stroke:none;" d="M48 100L40 113L40 114L44 114L48 100z"/>
<path style="fill:#142417; stroke:none;" d="M241 115L248 116L248 117L242 116L242 117L244 119L241 117L237 118L237 119L239 127L263 122.373L285 116L285 115L280 115L280 114L282 113L276 101L277 104L273 104L273 103L275 102L274 100C264.74 102.812 247.843 108.293 241 115z"/>
<path style="fill:#b6b5b7; stroke:none;" d="M23.3333 102.667L23.6667 103.333L23.3333 102.667z"/>
<path style="fill:#94b097; stroke:none;" d="M156.667 102.333L157.333 102.667L156.667 102.333z"/>
<path style="fill:#6e886d; stroke:none;" d="M144 103L144 104L156 104L144 103z"/>
<path style="fill:#9abb6a; stroke:none;" d="M129 122L129 123L177 121.668L234 111L234 110L218 109L218 108L232 104L203 111.098L129 122z"/>
<path style="fill:#747b69; stroke:none;" d="M32 104L32 108L33 108L32 104z"/>
<path style="fill:#879c89; stroke:none;" d="M188.667 104.333L189.333 104.667L188.667 104.333z"/>
<path style="fill:#b1c3b3; stroke:none;" d="M190.667 105.333L191.333 105.667L190.667 105.333z"/>
<path style="fill:#bbb1af; stroke:none;" d="M301 109L304 110L304 111L280 123C289.462 122.655 304.948 114.798 309 106L301 109z"/>
<path style="fill:#91948d; stroke:none;" d="M256.667 107.333L257.333 107.667L256.667 107.333z"/>
<path style="fill:#787473; stroke:none;" d="M299.667 109.333L300.333 109.667L299.667 109.333z"/>
<path style="fill:#707770; stroke:none;" d="M245.667 111.333L246.333 111.667L245.667 111.333z"/>
<path style="fill:#9c9c9a; stroke:none;" d="M295.667 111.333L296.333 111.667L295.667 111.333z"/>
<path style="fill:#918785; stroke:none;" d="M34 112C35.885 118.33 43.0657 122.238 49.0104 124.554C62.4184 129.776 76.0488 133.244 90 136.624C141.785 149.169 199.101 150.382 251 137.629C263.414 134.578 274.183 131.114 286 126.151C291.599 123.8 297.914 122.189 300 116C217.381 152.161 115.614 149.78 34 112z"/>
<path style="fill:#1f4021; stroke:none;" d="M184 125L189 130L185 130L185 132L198 131L198 132L195 132L195 133C217.044 133 237.535 128.522 259 124L259 123L239 127C240.094 123.366 240.222 121.269 237 119L237 118L241 117L244 119L242 117L242 116L248 117L248 116L241 115L228 116.37L184 125z"/>
<path style="fill:#898b88; stroke:none;" d="M290.667 113.333L291.333 113.667L290.667 113.333z"/>
<path style="fill:#869087; stroke:none;" d="M234.667 114.333L235.333 114.667L234.667 114.333z"/>
<path style="fill:#828d89; stroke:none;" d="M230.667 115.333L231.333 115.667L230.667 115.333z"/>
<path style="fill:#c6d4b1; stroke:none;" d="M108 125L108 126L160 126.885L218 119L218 118L213 118L213 117L215 117C204.397 113.121 186.974 120.13 176 121.668C153.81 124.777 130.377 125 108 125z"/>
<path style="fill:#80827d; stroke:none;" d="M282.667 116.333L283.333 116.667L282.667 116.333z"/>
<path style="fill:#565b54; stroke:none;" d="M278.667 117.333L279.333 117.667L278.667 117.333z"/>
<path style="fill:#a6a8a3; stroke:none;" d="M280.667 117.333L281.333 117.667L280.667 117.333z"/>
<path style="fill:#2e5334; stroke:none;" d="M60 118L60 119C102.371 132.919 153.646 140.053 198 132L198 131L185 132L185 130L189 130C186.348 120.896 165.121 126.715 158 126.981C135.249 127.833 112.521 126.66 90 123.741C79.9498 122.438 70.0747 118.684 60 118z"/>
<path style="fill:#838881; stroke:none;" d="M276.667 118.333L277.333 118.667L276.667 118.333z"/>
<path style="fill:#aec287; stroke:none;" d="M114 121L114 123L154 124L154 123L129 123L129 122L132 122L114 121z"/>
<path style="fill:#5f665f; stroke:none;" d="M262.667 122.333L263.333 122.667L262.667 122.333z"/>
<path style="fill:#9dada0; stroke:none;" d="M88 123L88 124L92 124L88 123z"/>
<path style="fill:#838a83; stroke:none;" d="M259.667 123.333L260.333 123.667L259.667 123.333z"/>
<path style="fill:#b4acaa; stroke:none;" d="M116 136L116 137C131.771 141.381 151.66 141 168 141C205.283 141 245.324 138.765 280 124C274.092 122.264 266.728 126.243 261 127.831C247.668 131.526 233.735 134.727 220 136.668C185.586 141.531 150.332 136 116 136z"/>
<path style="fill:#9db2a1; stroke:none;" d="M98 124L98 125L105 125L98 124z"/>
<path style="fill:#95a78f; stroke:none;" d="M180 124L180 125L185 125L180 124z"/>
<path style="fill:#829581; stroke:none;" d="M173 125L173 126L178 126L173 125z"/>
<path style="fill:#b4aaa9; stroke:none;" d="M71 126L71 127L97 133L71 126z"/>
<path style="fill:#577a59; stroke:none;" d="M115 126L115 127L127 127L115 126z"/>
<path style="fill:#6a786b; stroke:none;" d="M242.667 127.333L243.333 127.667L242.667 127.333z"/>
<path style="fill:#748e75; stroke:none;" d="M122 132L122 133L128 133L122 132z"/>
<path style="fill:#516a55; stroke:none;" d="M182 133L182 134L194 134L182 133z"/>
<path style="fill:#889987; stroke:none;" d="M194 133L194 134L202 134L194 133z"/>
<path style="fill:#778e7c; stroke:none;" d="M142 134L142 135L178 135L142 134z"/>
<path style="fill:#c0bbbd; stroke:none;" d="M194 169L194 170L198 170L194 169z"/>
<path style="fill:#c5c2c3; stroke:none;" d="M161 171L161 172L180 172L161 171z"/>
</svg>
